<?xml version="1.0" encoding="utf-8"?>
<!-- Generator: Adobe Illustrator 11.0, SVG Export Plug-In  -->
<!DOCTYPE svg PUBLIC "-//W3C//DTD SVG 1.0//EN"    "http://www.w3.org/TR/2001/REC-SVG-20010904/DTD/svg10.dtd" [
	<!ENTITY ns_flows "http://ns.adobe.com/Flows/1.0/">
	<!ENTITY ns_svg "http://www.w3.org/2000/svg">
	<!ENTITY ns_xlink "http://www.w3.org/1999/xlink">
]>
<svg  xmlns="&ns_svg;" xmlns:xlink="&ns_xlink;" xmlns:a="http://ns.adobe.com/AdobeSVGViewerExtensions/3.0/"
	 width="218" height="218" viewBox="-0.154 -0.221 218 218" xml:space="preserve">
	<defs>
	</defs>
	<g>
		<path fill="#FFFFFF" stroke="#FFFFFF" stroke-width="0.7287" d="M108.655,216.946c59.807,0,108.291-48.484,108.291-108.289
			c0-59.809-48.484-108.293-108.291-108.293S0.364,48.849,0.364,108.657C0.364,168.462,48.849,216.946,108.655,216.946z"/>
		<circle fill="#FFFFFF" cx="108.618" cy="108.873" r="60.21"/> 
		<circle fill="#ED171F" cx="108.708" cy="108.903" r="103.453"/> 
		<circle fill="#FFFFFF" cx="108.653" cy="108.976" r="93.107"/> 
		<path fill="#ED171F" stroke="#051C43" stroke-width="1.1098" d="M69.972,180.399c-0.246-2.242-3.098-4.209-4.994-1.539
			c-1.898,2.672,0.037,5.768,4.215,5.059c2.844-0.48,1.863,1.098,0.098,3.746c-0.887,1.328-0.725,2.473-1.549,3.955
			c-1.213-2.012-2.256-4.037-4.549-4.266c-3.004-0.297-4.357-1.143-6.322-4.033c-2.635-0.492-3.641-1.668-3.906-3.232
			c3.74-1.705,5.238-3.17,6.648-5.154c1.408-1.986,1.674-4.785,2.236-6.219c1.631-0.68,3.686-1.633,4.879-3.313
			c1.191-1.68,2.123-4.121,2.488-5.926c1.428,0.898,3.605,1.871,4.002,3.418c0.396,1.543,3.275,1.291,3.998,1.805
			c0.766,0.543,0.746,1.217,1.664,2.674c0.918,1.455,2.355,2.02,3.811,1.102c-0.67,1.59-0.82,2.285-1.768,2.646
			c-0.945,0.361-0.582,2.113-0.992,2.855c-0.637,1.146-3.695,1.969-4.045-2.07c-0.348-4.035-4.699-3.566-6.219-1.43
			c-1.518,2.139,0.273,6.566,3.652,3.916c-0.107,0.957-0.256,2.461-1.088,2.902c-0.83,0.443-0.852,0.428-0.801,1.209
			C71.493,179.47,70.63,180.118,69.972,180.399z"/>
		<path fill="#ED171F" stroke="#051C43" stroke-width="1.1098" d="M141.899,181.856c-0.605-1.078-1.824-1.357-2.381-1.434
			c0.227-0.512,0.625-1.699,0.021-2.775c-1.484-3.031-6.338-9.842,1.586-14.279c7.922-4.441,12.434,5.457,12.938,6.355
			c0.604,1.076,2.068,1.219,2.625,1.293c-0.227,0.514-0.871,1.836-0.266,2.914c2.563,4.574,5.699,10.619-1.162,14.467
			C148.399,192.239,144.003,185.614,141.899,181.856z M152.099,175.927c-0.605-1.078-1.824-1.357-2.381-1.434
			c0.229-0.516,0.627-1.699,0.021-2.775c-2.105-3.758-3.467-4.15-5.428-3.053c-1.961,1.1-0.342,3.922,0.666,5.719
			c0.605,1.078,1.578,1.496,2.135,1.57c-0.227,0.516-0.707,1.746-0.104,2.824c1.42,2.529,2.965,5.928,5.822,4.326
			C155.688,181.501,152.601,176.825,152.099,175.927z"/>
		<path fill="#ED171F" stroke="#051C43" stroke-width="1.1098" d="M170.419,164.81c3.623-1.822,6.936,1.752,7.811,3.133
			c1.9-1.938,0.979-1.531,2.146-3.926c1.256-0.08,2.508-0.82,3.879-2.754c-2.445,0.488-7.813-0.055-8.963-2.229
			c-1.719,0.15-5.029,0.053-6.568-1.457c-1.537-1.51-0.836-4.229-0.461-6.484c-2.801-2.09-2.234-5.072-1.816-9.518
			c-1.584,0.547-2.152,3.137-3.596,4.74c-2.035,1.543-2.633,1.35-3.752,2.09c1.875,2.1,3.635,2.713,2.227,7.492
			c-4.752,1.504-6.268-1.096-6.75-2.881c-0.848,1.135-1.301,2.133-2.014,3.793c-1.578,1.078-2.826,1.949-3.34,3.547
			c4.104-0.176,5.953-0.461,8.1,2.299c2.246-0.42,3.828-1.096,5.367,0.41c1.537,1.51,1.447,5.748,1.332,7.471
			c2.598,1.494,2.32,6.992,1.883,9.449c1.906-1.412,3.145-3.211,3.197-4.469c2.373-1.215,2.705-1.02,4.607-2.959
			C172.308,171.71,168.669,168.47,170.419,164.81z"/>
		<path fill="#ED171F" stroke="#051C43" stroke-width="1.1098" d="M132.317,180.644c-1.217,0.527-1.646,0.928-2.637,1.01
			c-2.563,0.211-4.531-4.879-0.828-5.887c3.07-0.838,4.359,1.043,5.617,2.447c0.754-0.787,0.838-2.266-0.484-3.557
			c-1.322-1.289-1.1-1.543-0.754-2.412c0.346-0.871,0.146-1.594-1.494-2.99c-0.682,1.057-0.533,1.598-2.34,2.092
			s-1.84-1.049-5.002-0.189c-3.162,0.861-5.645,3.225-4.84,8.596c0.238,1.584,2.051,3.615,4.893,4.783
			c1.611,0.658,2.232,1.428,2.791,2.051c1.215-0.523,1.447-0.582,2.438-0.664c2.564-0.211,4.541,5.268,0.836,6.273
			c-3.072,0.838-6.691-1.768-7.947-3.172c-0.756,0.789-1.791,2.332-0.469,3.621c1.32,1.289,0.73,2.324,0.383,3.195
			c-0.344,0.869-0.213,1.707,1.43,3.104c0.682-1.061,1.174-2.453,2.982-2.943c1.805-0.494,3.275,1.336,6.438,0.477
			c3.16-0.861,6.67-3.021,5.865-8.391c-0.236-1.584-1.182-4.338-4.021-5.504C133.562,181.923,132.874,181.269,132.317,180.644z"/>
		<path fill="#ED171F" stroke="#051C43" stroke-width="1.1098" d="M98.134,186.353c-1.338,0.064-1.807,2.729-2.799,3.945
			c-2.92,6.998-7.006,7.875-9.873,6.723c-2.865-1.152-3.668-3.799-5.58-4.568c-1.67-0.67-1.982-0.09-4.65-0.357
			c1.797-1.951,6.688-8.84,4.836-13.016c4.229-1.73,5.818-8.938,5.977-10.336c1.973-0.014,2.037,1.523,3.707,2.199
			c1.912,0.768,3.176-0.742,6.043,0.412c2.865,1.154,4.98,4.426,2.234,11.496C97.903,184.415,97.214,185.376,98.134,186.353z
			 M91.966,186.073c0.352-1.1-0.404-2.189-0.791-2.656c0.578-0.131,1.809-0.537,2.16-1.635c1.221-3.834,0.438-5.098-1.971-5.934
			c-2.41-0.83-3.299,2.08-3.881,3.91c-0.352,1.1,0.104,2.086,0.488,2.555c-0.576,0.133-1.908,0.5-2.26,1.602
			c-0.822,2.58-2.213,5.771,1.299,6.984C90.524,192.114,91.675,186.991,91.966,186.073z"/>
		<path fill="#ED171F" stroke="#051C43" stroke-width="1.1098" d="M53.925,144.655c1.678,1.217,2.334,2.303,2.988,4.379
			c1.58,0.322,6.691,1.832,5.99,6.576c-0.699,4.746-1.934,5.893-1.318,7.24c-0.463-0.084-2.227-0.184-2.699,0.4
			c-0.832,1.031-2.588,1.957-4.146,2.002c-0.498,0.977-0.752,2.49-1.436,3.131c-0.688,0.637-1.01,2.215-0.375,3.031
			c-0.539,0.246-3.193,2.205-0.682,4.217c-0.676,0.373-4.953,1.412-6.74-0.506c-1.783-1.922,0.014-5.898-0.307-8.027
			c1.834,0.596,5.359-1.664,2.746-4.473c-2.234-2.4-5.75-0.406-8.396,4.996c-1.049-0.305-2.266-1.471-2.9-4.078
			c-0.838-0.625-1.494-0.781-3.012-2.824c1.605-0.473,4.895-1.613,6.676-3.271s3.84-3.572,4.18-5.68
			c1.396-0.148,4.885-1.35,6.328-2.818C52.265,147.478,53.714,145.907,53.925,144.655z M50.356,159.993
			c1.346,1.449,4.102,1.197,5.654-0.248c1.553-1.443,1.451-3.662,0.105-5.107s-3.553-1.707-5.104-0.264
			C49.46,155.819,49.013,158.548,50.356,159.993z"/>
		<circle fill="none" cx="108.638" cy="108.923" r="63.781"/> 
		<path fill="#FFFFFF" d="M100.642,78.132c0.314-0.791,0.945-2.939,1.395-3.588c0.447-0.646,0.1-1.496-0.549-0.398
			c-0.648,1.096-1.445,3.488-1.744,4.484c-0.299,0.998-0.598,1.547-0.697,1.994c-0.1,0.449,0.166,1.066,0.549,0.299
			C100.093,79.927,100.442,78.63,100.642,78.132z"/>
		<path fill="#FFFFFF" d="M103.481,75.739c-0.221,0.523-1.572,4.494-1.844,5.234c-0.273,0.746-0.051,1.52,0.348,0.473
			c0.414-1.086,1.533-4.59,1.895-5.332C104.7,74.437,104.228,73.972,103.481,75.739z"/>
		<path fill="#FFFFFF" d="M105.55,79.329c0.422-1.131,0.727-1.92,1.07-2.492c0.6-0.996,0.125-1.793-0.572-0.498
			s-2.094,4.957-2.393,5.955s0.1,1.67,0.697,0.324C104.952,81.272,105.222,80.206,105.55,79.329z"/>
		<path fill="#FFFFFF" d="M109.362,77.833c0.318-0.811-0.449-1.445-0.898-0.498c-0.447,0.947-1.961,5.586-2.342,6.428
			c-0.432,0.961,0.375,1.621,0.898,0.35C107.597,82.708,108.913,78.979,109.362,77.833z"/>
		<path fill="#FFFFFF" d="M111.481,78.657c-0.33,0.529-2.469,4.857-2.816,6.303c-0.027,0.262,0.125,0.512,0.547-0.598
			c0.576-1.51,0.512-1.676,1.246-2.816c0.723-1.121,1.297-2.143,1.445-2.592C112.054,78.507,111.878,78.009,111.481,78.657z"/>
		<path fill="none" stroke="#ED171F" stroke-width="1.112" stroke-linecap="round" stroke-linejoin="round" d="M132.997,98.056
			l-4.82,8.623c0,0,5.469,4.08,5.563,4.17"/>
		<polyline fill="none" stroke="#ED171F" stroke-width="1.112" stroke-linecap="round" stroke-linejoin="round" points="
			140.228,96.112 133.923,104.083 139.3,108.534 "/>
		<polyline fill="none" stroke="#ED171F" stroke-width="1.112" stroke-linecap="round" stroke-linejoin="round" points="
			145.882,95.278 139.208,102.415 143.935,107.05 "/>
		<polyline fill="none" stroke="#ED171F" stroke-width="1.112" stroke-linecap="round" stroke-linejoin="round" points="
			152.093,94.813 144.677,101.024 148.942,105.751 "/>
		<polyline fill="none" stroke="#ED171F" stroke-width="1.112" stroke-linecap="round" stroke-linejoin="round" points="
			162.847,95.462 156.913,99.634 160.159,104.362 "/>
		
			<line fill="none" stroke="#ED171F" stroke-width="1.112" stroke-linecap="round" stroke-linejoin="round" x1="123.169" y1="109.274" x2="126.601" y2="100.56"/>
		<polyline fill="none" stroke="#ED171F" stroke-width="1.112" stroke-linecap="round" stroke-linejoin="round" points="
			167.11,97.501 162.938,99.911 165.442,104.362 "/>
		<polyline fill="none" stroke="#ED171F" stroke-width="1.112" stroke-linecap="round" stroke-linejoin="round" points="
			154.909,104.95 151.091,100.036 156.942,95.028 "/>
		<polyline fill="none" stroke="#ED171F" stroke-width="1.112" stroke-linecap="round" stroke-linejoin="round" points="
			95.546,162.726 90.276,165.552 85.796,161.933 "/>
		<polyline fill="none" stroke="#ED171F" stroke-width="1.112" stroke-linecap="round" stroke-linejoin="round" points="
			96.474,157.813 90.556,161.474 85.89,156.554 "/>
		<polyline fill="none" stroke="#ED171F" stroke-width="1.112" stroke-linecap="round" stroke-linejoin="round" points="
			97.536,153.356 91.05,156.353 86.737,149.942 "/>
		<polyline fill="none" stroke="#ED171F" stroke-width="1.112" stroke-linecap="round" stroke-linejoin="round" points="
			99.669,147.237 92.069,150.696 87.942,144.474 "/>
		<path fill="none" stroke="#ED171F" stroke-width="1.112" stroke-linecap="round" stroke-linejoin="round" d="M67.642,105.194
			l3.338-7.785c0,0-5.932-3.986-6.025-4.08"/>
		<polyline fill="none" stroke="#ED171F" stroke-width="1.112" stroke-linecap="round" stroke-linejoin="round" points="
			99.208,61.577 107.181,58.677 111.308,64.897 "/>
		<polyline fill="none" stroke="#ED171F" stroke-width="1.112" stroke-linecap="round" stroke-linejoin="round" points="
			101.433,56.665 108.847,53.298 112.976,60.356 "/>
		<polyline fill="none" stroke="#ED171F" stroke-width="1.112" stroke-linecap="round" stroke-linejoin="round" points="
			103.474,51.659 109.96,48.663 114.274,55.071 "/>
		<path fill="none" stroke="#ED171F" stroke-width="1.112" stroke-linecap="round" stroke-linejoin="round" d="M74.288,102.63
			l2.775-8.002c0,0-6.201-3.555-6.299-3.641"/>
		<path fill="none" stroke="#ED171F" stroke-width="1.112" stroke-linecap="round" stroke-linejoin="round" d="M79.108,99.667
			l2.775-8.006c0,0-6.201-3.555-6.299-3.641"/>
		<path fill="none" stroke="#ED171F" stroke-width="1.112" stroke-linecap="round" stroke-linejoin="round" d="M61.78,106.513
			l3.434-6.826c0,0-5.67-4.35-5.756-4.447"/>
		<path fill="none" stroke="#ED171F" stroke-width="1.112" stroke-linecap="round" stroke-linejoin="round" d="M55.692,107.485
			l4.477-6.191c0,0-4.535-4.645-4.604-4.758"/>
		<path fill="none" stroke="#ED171F" stroke-width="1.112" stroke-linecap="round" stroke-linejoin="round" d="M49.751,108.249
			l5.043-5.744c0,0-3.65-4.898-3.709-5.014"/>
		<path fill="none" stroke="#051C43" stroke-width="2.1017" d="M110.009,48.542c-5.764,29.594-30.744,52.316-61.422,54.652"/>
		<path fill="none" stroke="#051C43" stroke-width="2.1017" d="M90.214,166.747c0.396-37.164,30.648-67.166,67.904-67.166
			c3.793,0,7.514,0.311,11.137,0.908"/>
		<circle fill="none" stroke="#051C43" stroke-width="2.1017" cx="108.618" cy="108.873" r="60.21"/> 
		<path fill="#ED171F" d="M43.983,80.271c0.533-0.797,0.361-1.387-0.533-1.977l-4.672-3.115l-4.672-3.115
			c-0.887-0.598-1.496-0.531-2.029,0.268l-0.662,0.992l-4.99-3.328c1.039-1.555,7.818-11.723,9.012-13.514
			c5.242-7.857,13.092-1.484,13.428,2.225c3.865-1.918,14.146,3.799,8.904,11.656c-1.193,1.791-8.439,12.658-9.479,14.215
			l-4.967-3.314L43.983,80.271z M48.921,71.769c0,0,1.4-2.1,1.816-2.723c0.414-0.623,0.844-1.686-0.479-2.568
			c-1.324-0.881-2.141-0.078-2.557,0.545c-0.414,0.621-1.814,2.723-1.814,2.723L48.921,71.769z M40.829,66.374
			c0,0,1.193-1.791,1.609-2.414c0.414-0.623,0.842-1.686-0.48-2.566c-1.322-0.883-2.139-0.078-2.555,0.545
			c-0.414,0.621-1.607,2.41-1.607,2.41L40.829,66.374z"/>
		<path fill="#051C43" d="M45.446,80.048c0.479-0.719,0.148-1.66-0.664-2.195l-5.42-3.613l-5.555-3.705
			c-0.807-0.543-1.65-0.387-2.131,0.332l-0.578,0.885l-3.104-2.07c0.936-1.402,7.242-10.859,8.316-12.469
			c4.721-7.082,11.469-0.656,11.789,2.697c3.498-1.719,13.342,2.92,8.621,10c-1.076,1.611-7.803,11.699-8.738,13.102l-3.123-2.084
			L45.446,80.048z M49.306,73.317c0,0,2.131-3.193,2.762-4.141c0.631-0.945,0.963-2.324-1.068-3.68s-3.193-0.529-3.824,0.418
			c-0.633,0.945-2.762,4.141-2.762,4.141L49.306,73.317z M41.159,67.884c0,0,1.814-2.719,2.447-3.666
			c0.631-0.945,1.064-2.482-0.967-3.836s-3.297-0.373-3.928,0.572c-0.631,0.947-2.445,3.668-2.445,3.668L41.159,67.884z"/>
		<path fill="#ED171F" d="M52.769,54.298c-4.65-6.006-3.551-14.646,2.455-19.297c6.006-4.652,14.646-3.551,19.297,2.453
			c4.652,6.008,3.551,14.646-2.455,19.297C66.06,61.403,57.419,60.304,52.769,54.298z M65.04,40.657
			c-1.453-1.877-4.154-2.221-6.031-0.768s-2.219,4.154-0.768,6.029l4.123,5.324c1.453,1.879,4.154,2.221,6.031,0.768
			s2.219-4.152,0.768-6.029L65.04,40.657z"/>
		<path fill="#051C43" d="M53.751,53.646c-4.279-5.527-3.268-13.475,2.26-17.754c5.525-4.277,13.475-3.268,17.752,2.26
			c4.279,5.525,3.268,13.475-2.258,17.752C65.979,60.183,58.03,59.171,53.751,53.646z M65.642,39.575
			c-1.672-2.16-4.953-2.42-7.326-0.58c-2.375,1.838-2.945,5.078-1.273,7.236l4.74,6.123c1.672,2.158,4.951,2.418,7.326,0.58
			s2.945-5.078,1.273-7.238L65.642,39.575z"/>
		<path fill="#ED171F" d="M89.388,47.218c0.887,0.037,2.188,0.83,5.871-0.234c3.953-1.139,6.783-4.488,5.242-9.492
			c-1.543-5.008-5.43-6.148-11.391-6.666c-6.123-0.133-4.297-3.508-2.59-3.998c1.842-0.533,3.143,0.941,3.711,1.557
			c0.566,0.615,0.637,0.691,0.637,0.691s3.594-1.037,4.402-1.27c0,0-2.1-7.279-2.359-8.178l-5.031,1.453l0.232,0.807
			c-0.887-0.035-0.771-0.652-4.455,0.41c-3.953,1.143-6.961,5.223-5.42,10.229s4.957,5.018,10.918,5.537
			c6.121,0.131,3.982,3.596,2.275,4.088c-1.844,0.531-3.594-0.813-4.16-1.428s-0.611-0.688-0.611-0.688s-4.225,1.219-5.033,1.453
			c0,0,2.127,7.367,2.387,8.266l5.639-1.627L89.388,47.218z"/>
		<path fill="#051C43" d="M88.243,47.364l-3.438,0.992c-0.258-0.898-1.762-6.109-1.762-6.109c0.809-0.232,3.189-0.92,3.189-0.92
			s0.061,0.08,0.627,0.695c0.506,0.572,2.953,1.91,4.568,1.465c4.652-1.287,4.105-6.686-2.166-6.623
			c-5.236-0.549-8.439,0.043-9.854-4.564c-1.414-4.605,1.361-7.986,4.818-8.984c3.682-1.063,4.115-0.227,5-0.191l-0.336-1.166
			l3.234-0.936c0.26,0.898,1.738,6.02,1.738,6.02c-0.809,0.234-2.607,0.754-2.607,0.754s-0.068-0.076-0.637-0.693
			c-0.566-0.613-2.586-1.887-4.428-1.355c-3.498,0.58-4.027,6.014,1.096,6.184c5.236,0.549,10.469,0.887,11.885,5.494
			c1.414,4.605-1.029,7.639-4.484,8.637c-3.219,0.93-5.279,0-6.059-0.043l-0.824-0.145L88.243,47.364z"/>
		<path fill="#ED171F" d="M135.017,35.124c3.691-6.641,12.066-9.029,18.707-5.338c6.639,3.691,9.029,12.066,5.338,18.705
			s-12.066,9.029-18.705,5.338C133.716,50.14,131.327,41.765,135.017,35.124z M152.388,41.036c1.152-2.076,0.404-4.691-1.668-5.846
			c-2.076-1.154-4.693-0.406-5.848,1.668l-3.271,5.885c-1.152,2.074-0.406,4.691,1.668,5.846c2.076,1.154,4.693,0.406,5.846-1.668
			L152.388,41.036z"/>
		<path fill="#051C43" d="M136.003,35.771c3.396-6.109,11.102-8.307,17.209-4.91c6.109,3.395,8.309,11.1,4.912,17.209
			c-3.395,6.107-11.1,8.307-17.209,4.91S132.608,41.88,136.003,35.771z M153.618,41.163c1.328-2.387,0.273-5.506-2.35-6.963
			c-2.625-1.459-5.828-0.709-7.154,1.678l-3.764,6.768c-1.326,2.387-0.273,5.504,2.35,6.963c2.627,1.459,5.83,0.709,7.156-1.678
			L153.618,41.163z"/>
		<path fill="#ED171F" d="M163.323,65.714l-4.746,3.705l-6.441-8.25l4.762-3.717l0.752,0.959c0.59,0.756,1.148,0.879,1.988,0.215
			l8.266-6.453c0.846-0.652,0.943-1.291,0.354-2.047l-0.75-0.961l5.352-4.18l5.822,7.422c0.404,0.516-3.789,15.717-4.156,17.07
			l4.895-3.822c0.848-0.654,0.977-1.256,0.385-2.012l-0.748-0.961l4.717-3.684l6.498,8.322l-4.717,3.684l-0.75-0.961
			c-0.59-0.756-1.262-0.852-2.104-0.188l-14.77,11.537c-0.748-0.959-3.309-4.238-3.713-4.756c-0.404-0.516,3.799-16.84,4.166-18.195
			c-0.266,0.211-5.223,4.08-5.521,4.313c-0.848,0.654-0.881,1.242-0.291,1.998L163.323,65.714z"/>
		<path fill="#051C43" d="M169.091,49.353l3.521-2.75l4.813,6.162c0.361,0.463-4.418,18.133-4.746,19.352l8.09-6.32
			c0.762-0.588,1.105-1.307,0.574-1.986l-0.732-0.939l2.961-2.313l5.135,6.576l-2.961,2.313l-0.768-0.982
			c-0.531-0.68-1.363-0.588-2.119,0.008l-14.656,11.447c-0.674-0.863-2.432-3.115-2.793-3.578
			c-0.365-0.465,4.73-19.777,5.063-20.998c-0.238,0.189-9.049,7.068-9.32,7.279c-0.762,0.588-0.615,1.311-0.084,1.99l0.697,0.895
			l-2.992,2.338l-5.061-6.48l2.992-2.336l0.676,0.863c0.531,0.68,1.209,1.012,1.965,0.414l10.016-7.822
			c0.762-0.588,0.938-1.586,0.406-2.266L169.091,49.353z"/>
		<path fill="#ED171F" d="M94.489,66.149c-0.736-2.824-0.498-4.459,2.314-4.348c3.668,0.143,6.705-0.285,10.197-0.607
			c2.875-0.266,3.553,0.188,4.652,1.885c0.965,1.494,0.697,7.885,2.387,9.482c2.291,2.168,3.145,3.334,3.672,7.102
			c0.535,3.83,2.617,18.07,3.834,25.395c1.178,7.09,7.203,8.229,18.023,9.49c7.758,0.902,14.193,6.68,16.713,13.801
			c0.766,2.164,0.826,3.738-0.264,4.402c-2.311,1.42-9.252,4.285-14.084,3.83c-10.047-0.939-23.301-5.326-32.029-5.951
			c-7.137-0.508-13.629-9.645-14.768-11.346c-1.607-2.4,1.234-9.936,3.973-17.26c0.877-2.338,1.875-4.467,3.219-7.215
			c0.447-0.918,1.439-2.311,1.752-3.238c0.82-2.434,1.014-5.375,0.127-6.592c-2.531-3.475,3.418-11.307,2.934-12.467
			c-0.908-1.57-11.707-5.174-12.346-5.332C94.636,66.647,94.489,66.149,94.489,66.149z"/>
		<path fill="#FFFFFF" d="M97.292,116.138c2.295,0.68,6.652,2.57,10.594,3.203c-0.047,2.992-0.227,6.484,0.508,9.729
			c-2.857,0.584-6.805,1.268-9.402-1.283c-2.656-2.602-2.709-5.789-2.67-7.555C96.368,118.192,96.435,115.88,97.292,116.138z"/>
		<path fill="#FFFFFF" d="M140.962,125.966c0.615,1.254,2.406,6.154,2.781,7.566c0.35,1.311,0.721,1.453,2.82,0.842
			c3.025-0.873,6.045-1.875,7.406-2.852c1.273-0.916,1.482-1.035,0.479-3.486c-1.666-4.061-3.904-7.334-5.857-6.348
			c-2.441,1.234-4.914,2.902-6.424,2.984C140.653,124.751,140.728,125.489,140.962,125.966z"/>
		<path fill="#FFFFFF" d="M99.196,66.114c0.025,0.592,0.34,3.18,0.416,3.998c0.078,0.828,0.635,1.455,0.541,0.289
			c-0.098-1.209-0.422-3.252-0.414-4.113C99.759,64.341,99.106,64.114,99.196,66.114z"/>
		<path fill="#FFFFFF" d="M108.495,68.626c-0.109-1.252-0.15-1.822-0.084-2.516c0.117-1.207-0.688-1.746-0.762-0.211
			c-0.076,1.533,0.322,3.254,0.305,4.654c-0.012,1.086,0.82,1.896,0.779,0.361C108.694,69.38,108.579,69.601,108.495,68.626z"/>
		<path fill="#FFFFFF" d="M102.979,65.667c-0.064-0.906-1.07-1.162-1.068-0.068s0.521,4.484,0.543,5.447
			c0.023,1.096,1.078,1.359,1-0.072C103.37,69.392,103.071,66.946,102.979,65.667z"/>
		<path fill="#FFFFFF" d="M110.255,65.618c-0.07,0.646-0.141,4.43,0.18,5.949c0.092,0.256,0.611,0.455,0.51-0.779
			c-0.068-0.85-0.107-1.104-0.092-1.959c0.025-1.391-0.004-2.631-0.064-3.119C110.728,65.22,110.341,64.829,110.255,65.618z"/>
		<path fill="#FFFFFF" d="M105.96,68.673c-0.162-1.246-0.225-1.813-0.186-2.51c0.064-1.211-0.76-1.717-0.771-0.182
			c-0.014,1.535,0.279,3.943,0.49,5.008c0.209,1.066,0.902,1.492,0.801-0.041C106.19,69.417,106.085,69.642,105.96,68.673z"/>
		<path fill="#FFFFFF" d="M96.786,66.622c0.025,0.592,0.146,1.422,0.223,2.238c0.078,0.828,0.633,1.457,0.539,0.291
			c-0.096-1.209-0.227-1.496-0.219-2.357C97.347,64.849,96.696,64.62,96.786,66.622z"/>
		<path fill="#FFFFFF" d="M94.782,67.138c3.482,1.109,7.404,2.512,9.363,3.453c2.604,1.25,3.633,1.74,2.904,3.051
			s-4.166,7.928-3.258,10.066c1.674,3.934,1.641,6.127-0.389,9.422c-2.031,3.289-6.523,14.076-8.195,21.313
			c-1.734,7.496,4.184,9.254,12.217,15.705l-0.898-0.137c-8.033-6.451-13.949-8.209-12.217-15.705
			c1.674-7.234,6.166-18.023,8.195-21.313c2.029-3.295,2.063-5.486,0.391-9.422c-0.91-2.139,2.527-8.756,3.256-10.066
			c0.73-1.311-0.322-1.434-2.926-2.686c-1.715-0.822-5.043-1.971-8.18-2.986L94.782,67.138z"/>
		<path fill="#FFFFFF" d="M67.313,118.458c2.055,1.23,4.939,3.045,8.994,4.18c-1.602,2.113-3.314,9.342-3.307,12.055
			c-2.408-0.121-6.826-0.6-8.752-3.783s-0.949-6.6-0.246-8.221C64.71,121.067,66.548,117.997,67.313,118.458z"/>
		<path fill="#FFFFFF" d="M106.786,142.298c0.283,1.367,0.791,6.613,0.805,8.072c0.012,1.357,0.336,1.588,2.521,1.518
			c3.146-0.098,6.443-0.398,8.002-1.008c1.461-0.568,1.547-1.531,0.617-4.014c-1.109-2.955-2.217-6.586-4.352-6.115
			c-2.672,0.586-4.621,0.895-6.105,0.596S106.677,141.782,106.786,142.298z"/>
		<path fill="#ED171F" d="M86.692,70.169c0.234-1.295,1.195-4.582,3.869-3.754c3.732,1.154,10.059,3.154,12.664,4.404
			c2.604,1.252,3.656,1.375,2.926,2.686c-0.729,1.311-4.166,7.928-3.256,10.066c1.672,3.936,1.639,6.127-0.391,9.422
			c-2.029,3.289-6.521,14.078-8.195,21.313c-1.732,7.496,4.184,9.254,12.217,15.705c9.596,7.711,11.279,7.959,14.445,18.764
			c0.645,2.203,0.236,2.938-0.986,3.313c-2.453,0.613-12.088,2.746-15.777,0.953c-3.691-1.785-19.629-11.875-27.893-14.754
			c-7.117-2.484-13.988-2.691-15.037-10.58c-0.959-7.217,7.846-13.268,10.307-19.709c2.223-5.82,7.697-29.236,12.451-30.627
			C85.601,76.915,86.401,71.755,86.692,70.169z"/>
		<path fill="#FFFFFF" d="M67.313,118.458c2.055,1.23,4.939,3.045,8.994,4.18c-1.602,2.113-3.314,9.342-3.307,12.055
			c-2.408-0.121-6.826-0.6-8.752-3.783s-0.949-6.6-0.246-8.221C64.71,121.067,66.548,117.997,67.313,118.458z"/>
		<path fill="#FFFFFF" d="M106.786,142.298c0.283,1.367,0.791,6.613,0.805,8.072c0.012,1.357,0.336,1.588,2.521,1.518
			c3.146-0.098,6.443-0.398,8.002-1.008c1.461-0.568,1.547-1.531,0.617-4.014c-1.109-2.955-2.217-6.586-4.352-6.115
			c-2.672,0.586-4.621,0.895-6.105,0.596S106.677,141.782,106.786,142.298z"/>
		<path fill="#FFFFFF" d="M102.835,74.06c-0.297,0.58-2.16,5.258-2.402,6.791c-0.107,0.281,0.15,0.672,0.625-0.678
			c0.48-1.367,0.619-1.543,1.127-2.828c0.514-1.293,0.93-2.553,1.113-3.01C103.515,73.796,103.192,73.353,102.835,74.06z"/>
		<path fill="#FFFFFF" d="M94.272,71.696c-0.186,0.563-1.26,4.805-1.48,5.596c-0.221,0.801,0.076,1.586,0.404,0.463
			c0.338-1.164,1.207-4.902,1.523-5.703C95.429,70.239,94.901,69.794,94.272,71.696z"/>
		<path fill="#FFFFFF" d="M88.45,75.815c0.166-1.52,1.051-4.863,1.328-5.531c1.004-2.428-0.059-2.029-0.494-0.951
			s-0.742,2.459-0.893,3.828c-0.15,1.367-0.346,1.918-0.59,2.395C87.442,76.263,88.298,77.185,88.45,75.815z"/>
		<path fill="#FFFFFF" d="M91.519,74.421c0.264-0.848,0.74-3.137,1.15-3.848c0.414-0.711-0.02-1.563-0.602-0.367
			c-0.584,1.193-1.211,3.746-1.439,4.809s-0.492,1.656-0.561,2.131c-0.064,0.477,0.262,1.096,0.596,0.266
			C91.099,76.333,91.353,74.956,91.519,74.421z"/>
		<path fill="#FFFFFF" d="M96.722,75.255c0.346-1.211,0.598-2.057,0.908-2.68c0.537-1.088-0.021-1.877-0.639-0.473
			c-0.617,1.406-1.762,5.332-1.988,6.395c-0.229,1.061,0.242,1.727,0.752,0.277S96.456,76.194,96.722,75.255z"/>
		<path fill="#FFFFFF" d="M100.563,73.382c0.262-0.869-0.588-1.465-0.977-0.443c-0.385,1.021-1.574,5.973-1.896,6.879
			c-0.369,1.033,0.525,1.654,0.961,0.289C99.136,78.599,100.192,74.61,100.563,73.382z"/>
		<path fill="#ED171F" d="M116.442,45.931c2.316,0.311,5.832,0.781,6.943,0.932c0.137-1.02,0.576-4.299,0.85-6.338l-1.6-0.215
			c-0.742-0.098-0.971-0.318-0.834-1.338s1.516-11.313,1.664-12.426l0,0c0.574,0.078-0.119-0.021,1.314,0.17
			c1.193,0.16,1.887,3.123,2.318,4.16l3.73,0.5c0.111-0.834,1.09-8.127,1.326-9.889c-1.113-0.148-9.9-1.328-12.217-1.639
			c-2.318-0.311-11.105-1.488-12.217-1.639c-0.236,1.762-1.215,9.057-1.326,9.891l3.73,0.5c0.691-0.887,2.139-3.563,3.334-3.402
			c1.432,0.193,0.736,0.105,1.311,0.182l0,0c-0.148,1.111-1.529,11.406-1.666,12.426s-0.416,1.17-1.158,1.072l-1.6-0.215
			c-0.273,2.039-0.713,5.316-0.85,6.338C110.608,45.149,114.124,45.62,116.442,45.931z"/>
		<path fill="#051C43" d="M116.591,44.821c2.316,0.311,4.703,0.631,5.814,0.779c0.137-1.02,0.279-2.082,0.553-4.121l-1.604-0.217
			c-0.742-0.098-0.967-0.316-0.83-1.336s1.816-13.541,1.965-14.654l0,0c1.229,0.17,1.736,0.248,2.807,0.377
			c1.207,0.318,1.857,1.789,2.834,4.203l1.748,0.229c0.111-0.834,0.785-5.875,1.023-7.635c-1.113-0.15-8.793-1.18-11.111-1.49
			c-2.316-0.311-9.998-1.34-11.109-1.49c-0.238,1.762-0.912,6.801-1.025,7.637l1.744,0.238c1.58-2.07,2.596-3.32,3.844-3.307
			c1.066,0.156,1.576,0.215,2.807,0.375l0,0c-0.15,1.111-1.828,13.635-1.965,14.654s-0.412,1.17-1.154,1.07l-1.604-0.215
			c-0.273,2.041-0.416,3.102-0.553,4.121C111.888,44.19,114.274,44.511,116.591,44.821z"/>
		<path fill="#051C43" d="M134.327,142.999h-2.018v5.496h-1.365v-5.496h-2.016v-1.189h5.398V142.999z M143.474,148.495h-1.365
			v-5.322h-0.031l-1.938,5.322h-1.318l-1.873-5.322h-0.031v5.322h-1.367v-6.686h2.367l1.555,4.367h0.033l1.621-4.367h2.348V148.495z
			"/>
	</g>
</svg>
