<?xml version="1.0" encoding="UTF-8"?>
<!DOCTYPE svg PUBLIC "-//W3C//DTD SVG 1.1//EN" "http://www.w3.org/Graphics/SVG/1.1/DTD/svg11.dtd">
<!-- Creator: CorelDRAW X6 -->
<svg xmlns="http://www.w3.org/2000/svg" xml:space="preserve" width="10.6806in" height="10.0694in" version="1.1" style="shape-rendering:geometricPrecision; text-rendering:geometricPrecision; image-rendering:optimizeQuality; fill-rule:evenodd; clip-rule:evenodd"
viewBox="0 0 10681 10069"
 xmlns:xlink="http://www.w3.org/1999/xlink">
 <defs>
  <style type="text/css">
   <![CDATA[
    .fil5 {fill:#2C90AA}
    .fil0 {fill:#393765}
    .fil2 {fill:#FEFEFE}
    .fil4 {fill:#2C90AA;fill-rule:nonzero}
    .fil1 {fill:#828283;fill-rule:nonzero}
    .fil3 {fill:#FEFEFE;fill-rule:nonzero}
   ]]>
  </style>
 </defs>
 <g id="Layer_x0020_1">
  <metadata id="CorelCorpID_0Corel-Layer"/>
  <path class="fil0" d="M10067 1301c0,0 290,-924 317,-1124 0,0 -1604,1002 -3897,2787l-145 -82c0,0 109,-326 -263,-390l480 -344c0,0 136,-109 154,-308l-797 598c0,0 -29,-11 -80,-25 -88,-33 -179,-53 -268,-64l0 0c0,0 0,0 0,0 -19,-2 -37,-4 -56,-6 0,0 -1,0 -1,0 -18,-2 -36,-3 -54,-4 -1,0 -2,0 -3,0 -18,-1 -35,-1 -53,-2 -1,0 -2,0 -3,0 -18,0 -35,0 -52,0 -17,0 -35,0 -52,0 -1,0 -2,0 -3,0 -17,0 -35,1 -53,2 -1,0 -2,0 -3,0 -18,1 -36,2 -54,4 0,0 -1,0 -1,0 -19,2 -37,4 -56,6 0,0 0,0 0,0l0 0c-89,11 -180,31 -268,64 -51,14 -80,25 -80,25l-798 -598c18,199 154,308 154,308l480 344c-372,63 -263,390 -263,390l-145 82c-2293,-1785 -3897,-2787 -3897,-2787 27,199 317,1124 317,1124l-444 -218 562 1374c568,1296 1441,1404 1441,1404l262 78 186 382 0 2290 2352 1313c196,596 357,1548 363,1583 0,0 0,0 0,0 0,0 0,0 0,0 0,0 0,0 0,0 0,0 0,0 0,0 6,-34 167,-987 362,-1583l2352 -1313 0 -2290 186 -382 262 -78c0,0 873,-108 1441,-1404l562 -1374 -444 218z"/>
  <path class="fil1" d="M10503 -7l-168 105c-16,10 -1612,1010 -3856,2755l-32 -18c8,-65 6,-160 -48,-250 -29,-49 -70,-89 -121,-120l336 -241 2 -1 2 -2c7,-5 167,-136 189,-372l19 -209 -168 126 -759 569c-10,-3 -21,-6 -34,-10 -87,-32 -182,-55 -282,-68l-6 -1 -4 0c-18,-2 -36,-4 -54,-6l-2 0c-19,-2 -38,-3 -57,-4l-2 0 -1 0 0 0c-19,-1 -38,-1 -56,-2l-1 0 -2 0c-7,0 -13,0 -20,0 -11,0 -23,0 -34,0 -11,0 -22,0 -34,0 -6,0 -13,0 -19,0l-3 0 -1 0c-18,0 -37,1 -56,2l-1 0 -1 0 -1 0c-19,1 -39,2 -58,4l-1 0c-18,2 -36,3 -54,6l-4 0 -6 1c-100,13 -195,36 -282,68 -13,4 -24,7 -34,10l-759 -569 -168 -126 19 209c21,236 182,367 189,372l2 2 2 1 336 241c-51,31 -92,71 -121,120 -53,89 -55,185 -48,250l-32 18c-2245,-1744 -3840,-2745 -3856,-2755l-168 -105 0 0 27 197c20,146 169,646 257,933l-250 -123 -220 -108 93 227 562 1374 0 1 0 1c133,304 294,569 479,788 149,177 314,325 489,440 275,180 492,222 538,229l217 65 159 326 0 2323 48 27 2320 1296c182,569 330,1431 347,1527l0 7 3 8 91 540 91 -540 3 -7 0 -7c16,-96 165,-959 347,-1527l2320 -1296 48 -27 0 -2323 159 -326 217 -65c46,-7 263,-50 538,-229 176,-115 340,-263 489,-440 185,-220 346,-485 479,-788l0 -1 0 -1 562 -1374 93 -227 -220 108 -250 123c88,-287 237,-786 257,-933l27 -197 0 0zm-5158 9514l0 0zm0 0l0 0zm0 0l0 0zm0 0c0,0 0,0 0,0 0,0 0,0 0,0zm0 0l0 0zm0 0c0,0 0,0 0,0 0,0 0,0 0,0zm0 0l0 0 0 0zm0 0l0 0zm0 0l0 0 0 0zm0 0l0 0 0 0zm0 0l0 0zm0 0l0 0zm0 0l0 0zm0 0c0,0 0,0 0,0 0,0 0,0 0,0zm0 0c0,0 0,0 0,0 0,0 0,0 0,0zm0 0l0 0 0 0zm0 0l0 0 0 0zm0 0l0 0zm0 0l0 0zm0 0l0 0zm0 0l0 0zm0 0l0 0c0,0 0,0 0,0zm0 0l0 0zm0 0c0,0 0,0 0,0 0,0 0,0 0,0zm0 0l0 0 0 0zm0 0l0 0zm0 0c0,0 0,0 0,0 0,0 0,0 0,0m0 0l0 0zm0 0l0 0 0 0zm0 0l0 0 0 0zm0 0l0 0 0 0zm0 0l0 0 0 0zm0 0c0,0 0,0 0,0 0,0 0,0 0,0m0 0l0 0zm0 0l0 0zm0 0l0 0zm0 0l0 0zm0 0l0 0zm0 0l0 0zm0 0l0 0zm0 0l0 0zm0 0l0 0zm0 0l0 0zm0 0l0 0zm0 0l0 0zm0 0l0 0zm0 0c0,0 0,0 0,0l0 0zm0 0l0 0 0 0zm0 0l0 0 0 0zm0 0l0 0zm0 0l0 0zm0 0l0 0zm0 0l0 0zm0 0l0 0 0 0zm0 0c0,0 0,0 0,0 0,0 0,0 0,0zm5039 -9330c-27,199 -317,1124 -317,1124l444 -218 -562 1374c-568,1296 -1441,1404 -1441,1404l-262 78 -186 382 0 2290 -2352 1313c-196,596 -357,1548 -362,1583 -6,-34 -167,-987 -363,-1583l-2352 -1313 0 -2290 -186 -382 -262 -78c0,0 -873,-108 -1441,-1404l-562 -1374 444 218c0,0 -290,-924 -317,-1124 0,0 1604,1002 3897,2787l145 -82c0,0 -109,-326 263,-390l-480 -344c0,0 -136,-109 -154,-308l798 598c0,0 29,-11 80,-25 88,-33 179,-53 268,-64 0,0 0,0 0,0 19,-2 37,-4 56,-6 0,0 1,0 1,0 18,-2 36,-3 54,-4 1,0 2,0 3,0 18,-1 35,-1 53,-2 1,0 2,0 3,0 6,0 12,0 19,0 11,0 23,0 34,0 11,0 22,0 34,0 6,0 12,0 19,0 1,0 2,0 3,0 17,0 35,1 53,2 1,0 2,0 3,0 18,1 36,2 54,4 0,0 1,0 1,0 19,2 37,4 56,6 0,0 0,0 0,0 89,11 180,31 268,64 51,14 80,25 80,25l797 -598c-18,199 -154,308 -154,308l-480 344c372,63 263,390 263,390l145 82c2293,-1785 3897,-2787 3897,-2787z"/>
  <path class="fil2" d="M564 1463l540 285c0,0 -391,-902 -438,-1082 0,0 1053,513 3782,2706 0,0 75,218 130,313l-2999 -1662 2319 1709 -1313 -133c0,0 -1174,-114 -1518,-940 -345,-826 -503,-1196 -503,-1196z"/>
  <path class="fil2" d="M10150 1463l-540 285c0,0 391,-902 438,-1082 0,0 -1053,513 -3782,2706 0,0 -75,218 -130,313l2999 -1662 -2319 1709 1313 -133c0,0 1174,-114 1518,-940 345,-826 503,-1196 503,-1196z"/>
  <path class="fil3" d="M5128 7859c67,181 139,413 213,712l0 1c0,0 0,0 0,-1 0,0 0,0 0,1l0 -1c73,-296 144,-527 211,-707 -42,-40 -107,-80 -201,-80 -103,0 -177,41 -223,76z"/>
  <path class="fil3" d="M4875 3194c0,0 -207,366 185,329 0,0 -164,-105 -185,-329z"/>
  <path class="fil3" d="M5810 3194c0,0 207,366 -185,329 0,0 164,-105 185,-329z"/>
  <path class="fil2" d="M5895 4390l-220 113 -70 210 -522 0 -70 -210 -220 -113c0,0 10,456 446,945l-93 -393 396 0 -93 393c436,-489 446,-945 446,-945z"/>
  <path class="fil4" d="M4338 6757c49,83 171,271 368,437 67,-28 152,-74 224,-141 0,0 -328,-80 -592,-296z"/>
  <path class="fil4" d="M4578 6513c312,315 352,404 352,404 -274,-34 -507,-186 -602,-264 0,0 -216,-180 -33,-679 0,0 0,290 283,539z"/>
  <path class="fil4" d="M5970 7183c153,-132 284,-280 344,-374 -247,173 -542,244 -542,244 63,59 136,101 198,130z"/>
  <path class="fil5" d="M4446 3372c-2729,-2193 -3782,-2706 -3782,-2706 14,55 60,177 118,320l3680 2431c-10,-27 -16,-45 -16,-45z"/>
  <path class="fil5" d="M2737 3987c0,0 192,443 514,667 0,0 -163,-327 -142,-453l84 121c0,0 514,-69 917,-55 0,0 -1044,-174 -1373,-279z"/>
  <path class="fil4" d="M3015 6391l1364 788c-127,-127 -178,-245 -178,-245l-1066 -588 0 -1526 -120 -89 0 1659z"/>
  <path class="fil5" d="M6268 3372c2729,-2193 3782,-2706 3782,-2706 -14,55 -60,177 -118,320l-3680 2431c10,-27 16,-45 16,-45z"/>
  <path class="fil4" d="M5468 5628l-135 1634 -113 -1634c-612,0 -892,296 -892,296 0,250 336,562 336,562l257 222c0,0 399,403 -112,565 99,70 214,131 343,173l-236 0c37,58 80,137 127,242 58,-48 164,-89 304,-89 121,0 225,32 294,85 46,-103 89,-181 125,-238l-229 0c135,-44 254,-109 356,-182 -470,-168 -85,-556 -85,-556l224 -227c0,0 332,-348 332,-557 0,0 -345,-296 -896,-296z"/>
  <path class="fil4" d="M5898 2620c-105,69 -247,189 -280,350 0,0 -53,-172 117,-400 -103,-24 -228,-41 -378,-41 -154,0 -283,18 -387,43 168,227 116,398 116,398 -33,-159 -173,-279 -278,-348 -58,23 -103,46 -136,65 96,33 208,125 298,353 0,0 31,385 246,496 -192,232 -518,-28 -518,-28 181,453 646,656 646,656 173,-121 156,-445 131,-626 218,-109 250,-498 250,-498 93,-235 209,-326 307,-356 -32,-19 -77,-42 -134,-64z"/>
  <path class="fil5" d="M8010 3987c0,0 -192,443 -514,667 0,0 163,-327 142,-453l-84 121c0,0 -514,-69 -917,-55 0,0 1044,-174 1373,-279z"/>
  <path class="fil5" d="M3371 4817c0,0 192,443 514,667 0,0 -163,-327 -142,-453l84 121c0,0 514,-69 917,-55 0,0 -1044,-174 -1373,-279z"/>
  <path class="fil5" d="M7411 4817c0,0 -192,443 -514,667 0,0 163,-327 142,-453l-84 121c0,0 -514,-69 -917,-55 0,0 1044,-174 1373,-279z"/>
  <path class="fil4" d="M7676 6391l-1364 788c127,-127 178,-245 178,-245l1066 -588 0 -1526 120 -89 0 1659z"/>
  <path class="fil4" d="M6114 6513c-312,315 -352,404 -352,404 274,-34 507,-186 602,-264 0,0 216,-180 33,-679 0,0 0,290 -283,539z"/>
 </g>
</svg>
