<?xml version="1.0" encoding="UTF-8"?>
<!DOCTYPE svg PUBLIC "-//W3C//DTD SVG 1.1//EN" "http://www.w3.org/Graphics/SVG/1.1/DTD/svg11.dtd">
<!-- Creator: CorelDRAW X6 -->
<svg xmlns="http://www.w3.org/2000/svg" xml:space="preserve" width="11.1111in" height="8.26389in" version="1.1" style="shape-rendering:geometricPrecision; text-rendering:geometricPrecision; image-rendering:optimizeQuality; fill-rule:evenodd; clip-rule:evenodd"
viewBox="0 0 11111 8264"
 xmlns:xlink="http://www.w3.org/1999/xlink">
 <defs>
  <style type="text/css">
   <![CDATA[
    .fil0 {fill:#313E62;fill-rule:nonzero}
    .fil1 {fill:#B79B62;fill-rule:nonzero}
    .fil3 {fill:#E53345;fill-rule:nonzero}
    .fil2 {fill:#FEFEFE;fill-rule:nonzero}
   ]]>
  </style>
 </defs>
 <g id="Layer_x0020_1">
  <metadata id="CorelCorpID_0Corel-Layer"/>
  <path class="fil0" d="M5514 -8c137,-22 192,135 283,210 63,-81 136,-166 242,-185 187,-55 435,73 429,286 15,116 -64,208 -153,270 194,-123 433,-186 661,-140 208,39 397,154 542,307 736,128 1463,318 2168,566 298,111 602,213 878,373 297,176 513,498 528,847 5,235 4,470 -4,705 19,116 23,232 23,349 0,91 -2,182 -1,272 0,333 -204,647 -494,805 -95,43 -145,137 -213,210 -84,90 -190,156 -297,215 -127,208 -332,360 -560,440 -174,213 -437,335 -702,391 -293,876 -956,1621 -1792,2014 -681,328 -1471,419 -2210,263 -1180,-235 -2194,-1136 -2573,-2277 -264,-55 -527,-178 -701,-390 -227,-81 -437,-231 -558,-442 -157,-73 -286,-192 -393,-325 -56,-75 -153,-99 -224,-157 -138,-110 -265,-251 -314,-425 -15,-248 5,-498 -8,-746 -23,-84 -69,-164 -63,-254 -9,-124 71,-232 67,-356 -2,-98 14,-202 -29,-294 -39,-87 -46,-181 -46,-275 0,-69 4,-138 2,-206 -9,-63 29,-118 84,-144 1099,-567 2292,-944 3510,-1156 178,-197 435,-324 702,-326 175,4 347,59 495,151 -97,-65 -169,-175 -144,-296 29,-250 375,-346 556,-194 42,36 77,80 112,123 64,-72 133,-138 198,-209l0 0z"/>
  <path class="fil1" d="M5296 308c85,-92 174,-179 262,-268 85,90 173,178 260,267 54,-104 128,-217 254,-233 160,-36 361,85 330,265 -1,165 -225,251 -341,136 -49,-30 10,-86 22,-122 50,4 141,75 172,8 63,-94 -69,-176 -153,-160 -137,34 -202,215 -135,334 56,84 168,104 262,107 160,-20 293,-129 453,-148 301,-58 602,88 804,305 909,157 1802,406 2658,749 252,104 515,225 681,450 97,128 167,279 189,439 37,331 -22,666 25,996 5,150 3,300 1,450 -6,226 -121,440 -284,593 -101,97 -248,136 -328,256 -98,136 -236,234 -386,305 -104,226 -335,361 -563,437 -146,232 -433,327 -688,384 -275,851 -902,1580 -1703,1978 -706,362 -1541,453 -2312,275 -1138,-255 -2105,-1141 -2460,-2252 -256,-43 -492,-166 -685,-339 11,-9 33,-27 44,-36 -248,-61 -499,-208 -610,-447 -102,-50 -204,-105 -283,-188 -78,-73 -130,-173 -228,-223 -183,-97 -347,-254 -412,-455 -21,-246 7,-494 -11,-741 -30,-119 -92,-241 -48,-366 47,-130 64,-267 54,-404 2,-113 -72,-210 -73,-323 -5,-118 0,-236 -1,-354 1083,-564 2257,-948 3458,-1160 119,-5 185,-113 275,-174 240,-182 579,-217 850,-83 125,65 274,111 409,41 162,-60 138,-309 1,-383 -71,-49 -164,-9 -214,50 -10,50 22,89 48,127 53,-12 112,-58 163,-17 57,76 -51,138 -118,143 -139,25 -260,-121 -228,-254 25,-171 239,-240 385,-184 98,37 151,133 199,220l0 0z"/>
  <path class="fil0" d="M5296 628c39,-158 142,-286 260,-393 118,106 225,232 263,390 72,45 131,106 192,163 181,23 364,15 546,34 1178,98 2337,387 3438,813 295,118 623,245 786,538 152,241 104,537 111,807 -56,-22 -113,-44 -169,-65 103,177 198,372 186,583 -8,221 34,460 -81,662 -126,254 -396,403 -670,437 53,26 105,53 159,79 -149,216 -414,312 -669,300 75,35 149,70 222,107 -179,213 -453,319 -727,330 56,29 112,59 167,89 -176,150 -399,232 -627,258 -242,793 -798,1486 -1525,1888 -733,416 -1628,521 -2441,308 -1073,-273 -1969,-1135 -2285,-2196 -230,-24 -448,-112 -629,-253 57,-33 115,-64 173,-95 -275,-6 -549,-114 -730,-325 72,-37 144,-74 216,-110 -255,16 -508,-90 -666,-291 60,-32 120,-64 181,-95 -200,-15 -406,-74 -547,-224 -73,-79 -156,-170 -153,-285 -4,-245 5,-490 -4,-735 -45,-70 -83,-153 -54,-237 76,-227 94,-487 0,-710 -28,-107 -13,-219 -16,-329 189,-84 365,-226 581,-227 30,-76 108,-101 176,-130 1317,-542 2728,-874 4154,-919 47,-68 110,-123 182,-165l0 0z"/>
  <path class="fil2" d="M4892 324c25,-25 53,-46 84,-64 47,17 92,43 136,66 -37,-8 -75,-17 -112,-26 -36,8 -72,16 -108,24l0 0z"/>
  <path class="fil2" d="M6047 312c11,-71 158,-68 162,4 -52,11 -110,-2 -162,-4l0 0z"/>
  <path class="fil3" d="M5534 473c56,-30 74,42 97,78 82,149 -51,298 -49,451 50,-82 61,-254 196,-219 109,29 77,161 12,220 -23,-29 -45,-57 -68,-84 -20,8 -60,25 -80,34 18,11 54,33 71,45 1,16 4,49 5,66 -32,0 -96,1 -129,1 14,18 42,55 56,73 -30,35 -58,71 -89,105 -32,-35 -61,-71 -91,-107 15,-17 44,-52 58,-69 -31,-1 -92,-3 -123,-5 0,-15 0,-44 1,-59 17,-14 50,-40 67,-54 -29,-11 -58,-21 -87,-30 -12,22 -37,65 -49,87 -70,-53 -111,-190 -1,-222 140,-38 156,140 195,227 4,-100 -36,-192 -62,-287 -31,-89 13,-182 69,-251l0 0z"/>
  <path class="fil0" d="M3874 758c204,-151 479,-181 711,-78 -238,22 -474,53 -711,78l0 0z"/>
  <path class="fil0" d="M6530 679c233,-103 507,-71 713,77 -238,-24 -475,-54 -713,-77l0 0z"/>
  <path class="fil2" d="M2004 1519c1015,-304 2064,-508 3125,-543 45,57 93,112 142,166 -1334,29 -2659,300 -3905,774 2,-75 13,-162 89,-199 173,-90 364,-138 548,-198l0 0z"/>
  <path class="fil2" d="M5988 977c1094,35 2174,258 3218,577 191,65 389,115 568,209 75,38 87,126 93,201 -1284,-497 -2650,-789 -4028,-823 52,-53 103,-106 148,-164l0 0z"/>
  <path class="fil2" d="M4408 1544c70,-202 317,-262 508,-233 129,15 249,115 259,249 9,142 1,285 4,428 33,28 74,53 84,98 -8,49 -52,77 -85,110 -4,165 10,331 -7,496 -29,166 -201,259 -357,267 -153,20 -355,-16 -408,-185 -38,-174 -8,-355 -20,-532 -27,-34 -107,-75 -62,-127 19,-26 40,-50 63,-73 10,-165 -19,-334 22,-497l0 0z"/>
  <path class="fil2" d="M5290 1301c186,-3 373,-15 558,7 144,17 264,143 270,289 4,165 39,361 -104,482 175,170 84,430 108,646 74,47 88,127 84,210 -95,-19 -223,22 -295,-56 -49,-206 15,-428 -33,-635 -55,-94 -182,-57 -271,-71 -5,248 -1,497 -2,745 -78,0 -156,0 -234,0 -1,-243 2,-486 -1,-729 -23,-25 -44,-51 -63,-79 -13,-54 36,-88 63,-127 3,-160 3,-320 0,-480 -53,-55 -75,-126 -79,-201l0 0z"/>
  <path class="fil2" d="M6251 1319c132,6 264,16 395,31 -1,82 -47,146 -88,213 8,403 5,807 7,1211 79,9 158,17 238,24 11,-149 -13,-301 15,-448 67,-18 137,-5 205,0 -1,217 5,433 -4,650 -230,-14 -459,-45 -689,-60 0,-246 0,-493 0,-739 -22,-18 -44,-36 -67,-54 2,-22 5,-66 7,-89 15,-11 45,-33 60,-44 0,-166 1,-331 -1,-497 -57,-52 -80,-122 -78,-198l0 0z"/>
  <path class="fil2" d="M7111 1401c253,38 508,66 755,133 6,172 3,344 2,516 -68,-23 -152,-22 -204,-76 -27,-97 -8,-201 -13,-300 -80,-13 -160,-26 -240,-39 -4,167 -4,334 -1,502 107,19 216,30 321,61 12,61 6,123 6,185 -110,-17 -218,-37 -328,-54 0,184 -3,368 2,552 79,13 159,26 238,39 0,-104 -1,-208 7,-312 71,-2 141,5 212,15 -14,170 28,352 -21,514 -222,-32 -442,-79 -665,-107 -1,-220 1,-440 0,-660 9,-75 -57,-124 -79,-190 24,-32 50,-62 79,-90 1,-158 -1,-316 1,-474 -25,-29 -49,-57 -73,-85 -1,-43 -1,-86 -1,-129l0 0z"/>
  <path class="fil2" d="M3463 1484c95,-16 191,-33 287,-45 -2,83 -33,160 -90,220 -19,151 -39,302 -52,454 -9,57 51,99 42,156 -21,31 -47,58 -72,86 -30,230 -50,462 -85,691 3,52 -54,58 -91,68 -85,19 -173,31 -260,40 -70,-340 -124,-683 -188,-1025 -60,339 -115,678 -173,1016 -9,36 -11,81 -43,105 -102,39 -210,60 -315,84 -42,-231 -62,-465 -93,-697 -100,-27 -72,-128 -27,-192 -13,-158 -35,-315 -54,-472 -25,-21 -50,-42 -75,-62 -1,-39 -2,-77 -3,-116 91,-26 182,-52 273,-78 51,448 101,895 161,1342 73,-446 135,-894 220,-1338 4,-114 146,-152 235,-114 102,423 158,857 238,1285 66,-468 111,-938 167,-1407l0 0z"/>
  <path class="fil0" d="M4725 1504c90,-43 230,9 225,122 2,334 4,669 -1,1003 -4,171 -312,205 -332,26 -10,-321 -1,-642 -4,-962 -7,-79 31,-165 112,-188l0 0z"/>
  <path class="fil0" d="M5605 1490c91,9 231,-35 276,75 23,113 21,233 4,346 -36,122 -186,79 -280,77 0,-166 -1,-333 0,-499l0 0z"/>
  <path class="fil2" d="M8202 1600c110,25 222,44 328,81 58,17 84,78 92,133 35,200 64,400 102,599 61,56 99,133 34,204 40,260 89,518 129,778 -76,-21 -152,-42 -227,-64 -19,-136 -27,-273 -54,-408 -86,-67 -210,-66 -313,-100 -26,132 -48,265 -72,397 -72,-17 -144,-34 -216,-50 44,-235 95,-468 134,-704 -28,-50 -43,-106 -46,-163 22,-5 64,-15 86,-21 31,-157 63,-313 93,-469 -54,-60 -70,-136 -70,-214l0 0z"/>
  <path class="fil2" d="M995 1897c88,-36 176,-73 265,-104 1,91 -46,167 -77,249 -11,206 -1,412 -5,619 18,8 54,25 72,33 -15,77 -74,141 -72,221 -2,281 4,562 -3,843 -68,31 -137,59 -206,86 -115,-331 -208,-669 -309,-1004 -14,382 -4,764 -6,1146 -65,30 -130,62 -194,93 0,-305 0,-610 0,-915 -18,-8 -55,-23 -74,-31 12,-61 35,-119 72,-169 3,-208 1,-417 2,-625 -15,-8 -47,-24 -63,-32 -1,-47 -2,-95 -3,-142 92,-43 183,-88 277,-125 120,336 210,682 320,1021 2,-389 -1,-777 2,-1166l0 0z"/>
  <path class="fil2" d="M8975 1807c100,30 207,49 298,103 127,380 215,773 329,1157 2,-351 0,-701 1,-1052 93,34 185,68 276,104 -8,64 -29,125 -81,167 -1,135 -3,270 -2,404 -16,102 124,210 2,286 -8,240 10,480 -11,719 -68,-22 -136,-46 -204,-70 -118,-370 -211,-747 -325,-1118 -4,335 -1,670 -2,1004 -67,-22 -135,-44 -202,-66 0,-244 1,-489 -1,-734 -62,-57 -102,-163 1,-206 -19,-191 51,-404 -60,-574 -11,-42 -17,-84 -19,-127l0 0z"/>
  <path class="fil2" d="M1320 2086c245,-89 488,-192 743,-247 5,171 3,341 2,512 -69,17 -140,32 -211,38 -7,-102 -7,-203 -7,-305 -76,29 -156,50 -228,89 -11,164 -2,329 -4,493 106,-35 211,-73 319,-101 2,61 7,122 -4,183 -100,48 -210,74 -314,113 -2,183 -2,367 -1,550 77,-27 155,-53 232,-79 5,-102 -13,-208 14,-307 47,-63 134,-70 202,-99 -2,165 11,331 -5,495 -7,8 -20,23 -27,31 -210,81 -426,142 -636,225 0,-246 0,-492 0,-737 -18,-9 -54,-26 -72,-35 5,-61 31,-116 70,-162 2,-160 2,-319 0,-478 -72,-35 -74,-108 -76,-177l0 0z"/>
  <path class="fil0" d="M8445 1906c51,265 92,532 133,799 -82,-28 -191,-21 -255,-81 30,-241 84,-479 122,-718l0 0z"/>
  <path class="fil2" d="M9984 2109c-1,-94 83,-173 176,-166 213,22 415,160 504,356 51,112 33,237 34,356 -63,-35 -137,-60 -181,-121 -61,-81 -7,-200 -77,-276 -58,-60 -151,-120 -235,-77 -26,113 -12,232 -12,347 2,101 84,173 142,246 42,20 103,24 123,74 64,186 246,317 263,522 6,159 8,320 -1,478 -3,100 -101,165 -196,149 -203,-23 -402,-143 -507,-320 -73,-116 -59,-258 -59,-388 70,35 156,55 204,121 42,88 -7,206 72,278 60,67 185,147 262,65 22,-137 9,-278 9,-417 2,-98 -56,-180 -110,-255 -104,-1 -168,-83 -172,-182 -95,-111 -204,-224 -235,-372 -10,-139 -6,-279 -3,-418l0 0z"/>
  <path class="fil2" d="M1206 4021c976,-411 2006,-697 3057,-827 181,-14 367,-64 546,-17l18 35c-45,112 -131,201 -182,309 -163,301 -207,684 -44,994 76,165 206,293 330,422 -20,3 -61,9 -81,12 -259,-165 -460,-433 -515,-739 -56,-280 12,-567 110,-829 -1132,95 -2233,421 -3282,849 -127,57 -271,50 -399,-1 142,-80 293,-143 442,-207l0 0z"/>
  <path class="fil2" d="M6289 3172c109,-17 221,-17 330,-4 1168,120 2316,430 3393,898 114,50 229,102 338,163 -130,50 -274,57 -402,-2 -1046,-427 -2146,-752 -3276,-846 95,251 157,523 116,792 -47,325 -258,616 -537,783 -16,-5 -50,-16 -66,-22 177,-164 338,-359 400,-596 94,-320 -7,-666 -184,-938 -47,-70 -101,-140 -110,-227l0 0z"/>
  <path class="fil2" d="M5197 3557c127,-6 226,-116 358,-102 134,-16 234,95 362,101 141,175 166,419 97,627 -117,5 -199,92 -288,157 4,-36 9,-72 17,-107 53,-50 154,-31 188,-108 34,-71 31,-153 47,-230 -185,-2 -247,193 -342,314 -66,-117 -41,-256 -81,-380 -33,125 -7,265 -78,379 -93,-123 -153,-316 -340,-312 16,84 12,176 59,250 37,54 108,45 164,58 13,45 23,91 32,137 -90,-67 -175,-152 -293,-162 -70,-209 -39,-449 97,-624l0 0z"/>
  <path class="fil1" d="M1936 4255c689,-235 1399,-415 2121,-512 -9,111 -15,221 -18,332 -486,102 -963,238 -1442,367 -232,57 -521,32 -662,-187l0 0z"/>
  <path class="fil1" d="M7058 3742c722,98 1431,278 2121,510 -140,222 -433,246 -666,189 -478,-130 -955,-265 -1441,-367 -1,-111 -6,-221 -15,-332l0 0z"/>
  <path class="fil3" d="M5238 4046c45,-18 94,55 76,95 -49,25 -104,-53 -76,-95l0 0z"/>
  <path class="fil3" d="M5835 4049c85,-43 48,115 -19,104 -55,-13 -9,-85 19,-104l0 0z"/>
  <path class="fil1" d="M2375 4730c547,-207 1114,-358 1687,-472 26,98 56,194 89,290 -369,116 -737,236 -1111,334 -231,61 -486,7 -666,-152l0 0z"/>
  <path class="fil3" d="M5474 4489c-7,-89 12,-173 82,-232 50,48 85,106 92,176 12,14 37,41 49,55 -37,507 -96,1014 -92,1523 -3,126 29,249 40,373 -21,64 -56,122 -86,181 -31,-61 -62,-123 -94,-183 37,-153 49,-311 49,-468 -8,-488 -62,-973 -95,-1460 14,8 41,25 55,34l0 0z"/>
  <path class="fil1" d="M6963 4549c33,-97 63,-194 90,-292 573,117 1142,266 1690,475 -183,157 -438,211 -671,150 -373,-98 -740,-220 -1109,-332l0 0z"/>
  <path class="fil3" d="M5238 4659c-12,-71 -43,-146 -8,-215 64,38 121,101 119,180 22,293 46,587 67,881 -67,-280 -111,-565 -178,-845l0 0z"/>
  <path class="fil3" d="M5766 4624c1,-77 52,-166 138,-166 -2,123 -38,240 -62,359 -50,227 -86,457 -142,683 20,-292 44,-584 66,-876l0 0z"/>
  <path class="fil1" d="M2905 5136c434,-168 879,-303 1321,-449 53,69 107,138 162,206 -256,104 -511,211 -771,307 -231,84 -512,104 -712,-64l0 0z"/>
  <path class="fil1" d="M6888 4688c441,144 886,281 1319,448 -190,163 -462,149 -685,72 -269,-96 -531,-208 -795,-315 55,-67 109,-136 162,-205l0 0z"/>
  <path class="fil2" d="M4997 5478c-48,-190 -4,-458 212,-522 25,102 46,205 67,308 -106,53 -220,107 -278,217 -9,-2 -28,-6 -37,-8l36 5 0 0z"/>
  <path class="fil2" d="M5840 5266c22,-104 44,-208 66,-311 213,68 263,335 209,526l35 -7c-9,2 -27,7 -36,9 -56,-110 -168,-165 -274,-217l0 0z"/>
  <path class="fil1" d="M3539 5441c310,-175 645,-301 971,-445 64,47 128,92 193,137 -218,140 -431,310 -695,348 -157,32 -318,7 -469,-40l0 0z"/>
  <path class="fil1" d="M6411 5133c67,-45 134,-91 200,-137 321,149 658,267 964,446 -183,59 -382,72 -567,16 -223,-58 -405,-205 -596,-325l0 0z"/>
  <path class="fil2" d="M4646 5626c26,-147 104,-278 189,-398 -1,118 8,237 40,352 -52,105 -94,215 -128,327 -38,-91 -99,-179 -101,-281l0 0z"/>
  <path class="fil2" d="M6281 5223c82,127 164,260 190,412 -12,96 -62,181 -102,267 -35,-110 -76,-217 -129,-320 29,-117 44,-238 41,-359l0 0z"/>
  <path class="fil1" d="M4998 5482c58,-110 172,-164 278,-217 57,353 200,709 112,1069 -35,-6 -70,-11 -105,-16 -31,-295 -184,-555 -291,-827l7 -9 0 0z"/>
  <path class="fil1" d="M5840 5266c106,51 218,106 274,217l6 9c-104,273 -254,533 -292,827 -33,5 -66,11 -100,16 -23,-129 -46,-262 -23,-393 41,-226 88,-450 135,-675l0 0z"/>
  <path class="fil1" d="M4148 5663c122,-105 261,-187 394,-277 -32,97 -58,196 -82,295 -104,6 -210,2 -312,-19l0 0z"/>
  <path class="fil1" d="M6574 5388c134,89 271,173 397,273 -104,23 -210,27 -316,20 -24,-98 -51,-196 -81,-293l0 0z"/>
  <path class="fil1" d="M4747 5907c34,-112 76,-222 128,-327 80,225 201,434 253,669 -158,-74 -282,-201 -381,-342l0 0z"/>
  <path class="fil1" d="M5987 6252c50,-235 171,-445 253,-669 53,103 93,211 129,320 -101,142 -228,265 -381,349l0 0z"/>
  <path class="fil3" d="M2736 5965c217,59 443,90 667,59 -62,46 -124,93 -185,141 418,88 874,131 1275,-51 91,300 304,564 591,696 399,195 913,116 1231,-195 147,-134 245,-312 308,-499 400,181 857,140 1275,50 -62,-47 -124,-94 -186,-140 225,30 452,2 669,-61 -294,715 -868,1308 -1575,1620 -599,269 -1286,334 -1926,190 -952,-207 -1778,-905 -2144,-1808l0 0z"/>
  <path class="fil1" d="M4641 6013c133,173 296,323 499,411 -36,56 -74,111 -115,163 -182,-147 -347,-335 -384,-575l0 0z"/>
  <path class="fil2" d="M6357 6155c39,-47 78,-94 117,-140 -39,131 -92,259 -175,368 20,-67 36,-136 53,-204 1,-6 4,-17 5,-23l0 0z"/>
  <path class="fil1" d="M5974 6426c135,-68 260,-154 378,-247 -16,68 -33,137 -53,204 -57,79 -135,140 -208,204 -41,-53 -81,-106 -117,-161l0 0z"/>
  <path class="fil2" d="M3538 6672c82,-86 163,-173 247,-257 70,69 147,133 204,213 37,82 -57,177 -140,146 -59,-31 -104,-80 -153,-123 -31,30 -62,60 -93,91 -16,-18 -48,-53 -64,-70l0 0z"/>
  <path class="fil2" d="M7217 6515c52,-71 138,-91 221,-98 -11,19 -34,59 -46,78 -51,22 -184,73 -125,138 84,-33 154,-122 252,-102 96,53 54,179 -16,234 -55,65 -144,72 -223,74 45,-110 212,-95 227,-232 -95,25 -170,114 -271,114 -94,-27 -82,-152 -19,-206l0 0z"/>
  <path class="fil1" d="M5278 6464c50,10 99,19 149,28 38,81 59,168 64,258 -112,-17 -222,-46 -328,-86 40,-66 79,-132 115,-200l0 0z"/>
  <path class="fil1" d="M5694 6501c45,-20 93,-29 139,-41 37,70 78,138 122,205 -108,38 -220,67 -333,86 8,-86 14,-180 72,-250l0 0z"/>
  <path class="fil3" d="M3798 6533c38,45 123,77 99,148 -66,27 -104,-52 -152,-84 13,-16 40,-48 53,-64l0 0z"/>
  <path class="fil2" d="M4009 7079c62,-102 123,-203 184,-304 98,59 197,117 294,178 -71,101 -165,-34 -242,-64 -15,18 -29,35 -43,53 62,38 128,72 185,117 -3,17 -8,51 -11,68 -70,-39 -140,-80 -208,-121 -10,15 -29,45 -38,60 69,41 137,82 207,123 -7,17 -22,50 -29,67 -100,-59 -199,-118 -298,-178l0 0z"/>
  <path class="fil2" d="M6880 6817c16,-16 47,-50 64,-66 65,105 129,211 192,318 -123,79 -255,-28 -379,-52 38,64 83,126 113,196 -16,15 -48,45 -64,60 -67,-102 -130,-207 -191,-312 20,-12 60,-36 80,-48 98,32 197,63 295,94 -38,-62 -79,-123 -109,-189l0 0z"/>
  <path class="fil2" d="M4563 7367c36,-113 74,-225 112,-337 23,8 69,23 92,30 -29,89 -59,178 -88,267 60,20 120,40 180,60 -5,17 -15,53 -20,70 -92,-30 -183,-60 -275,-90l0 0z"/>
  <path class="fil2" d="M6191 7112c32,-10 64,-21 95,-31 89,96 177,194 266,291 -25,8 -75,24 -101,32 -13,-14 -38,-40 -51,-54 -51,15 -102,30 -152,46 -13,64 -67,90 -121,112 18,-133 42,-264 64,-397l0 0z"/>
  <path class="fil2" d="M5096 7510c19,-114 29,-230 58,-342 23,0 68,1 91,2 -17,119 -35,237 -54,355 -32,-5 -64,-10 -95,-15l0 0z"/>
  <path class="fil2" d="M5467 7401c-42,-239 322,-293 429,-114 -26,4 -78,10 -103,14 -54,-22 -113,-74 -171,-31 -77,36 -79,159 -4,198 100,63 182,-74 288,-59 -57,196 -413,211 -439,-7l0 0z"/>
  <path class="fil3" d="M6267 7199c27,31 54,62 81,93 -34,10 -67,19 -101,29 6,-41 13,-82 20,-122l0 0z"/>
 </g>
</svg>
